<svg xmlns="http://www.w3.org/2000/svg" xmlns:xlink="http://www.w3.org/1999/xlink"
     xmlns:sketch="http://www.bohemiancoding.com/sketch/ns" viewBox="0 0 100 125" version="1.1" x="0px" y="0px">
    <title>icons 10</title>
    <g stroke="none" stroke-width="1" fill="none" transform="" fill-rule="evenodd" sketch:type="MSPage">
        <g sketch:type="MSLayerGroup" fill="#7A08FA">
            <path d="M89.4211441,32.66261 C89.5657137,31.7774449 89.645082,30.8851726 89.6450821,29.9929003 C89.6450821,19.9952669 87.8929478,4.59936627e-06 59.7521911,0 C35.6263372,-3.86584779e-06 30.8557309,17.9957402 30.8557314,27.9933736 C30.8557314,37.9910071 39.8235984,49.9881672 39.8235984,49.9881672 C39.8235984,49.9881672 31.8521608,53.9872206 22.884294,53.9872206 C13.9164272,53.9872206 11.4713947,49.9881673 5.22068828,48.9884039 C-1.03001817,47.9886405 -3.02287755,78.9813042 6.9414196,89.978701 C16.9057169,100.976098 29.8593017,99.9763421 49.7878949,99.9763345 C69.716488,99.9763268 99.6093718,99.9763345 99.609375,79.9810676 C99.6093788,59.9858007 79.6807845,49.9881672 79.6807845,49.9881672 C79.6807845,49.9881672 81.6661558,47.9961538 83.8644676,44.9013072 C84.1795146,44.9019608 84.5049531,44.9019608 84.8415818,44.9019608 C93.7259165,44.9019608 106.784791,33.8861175 95.8131862,33.8861194 C93.539161,33.8861198 91.3936789,33.4128947 89.4211441,32.66261 L89.4211441,32.66261 Z M70.8007812,30 C73.5514183,30 75.78125,27.7614239 75.78125,25 C75.78125,22.2385761 73.5514183,20 70.8007812,20 C68.0501442,20 65.8203125,22.2385761 65.8203125,25 C65.8203125,27.7614239 68.0501442,30 70.8007812,30 Z"
                  sketch:type="MSShapeGroup"/>
        </g>
    </g>

</svg>